<svg width="144" height="79" viewBox="0 0 144 79" fill="none" xmlns="http://www.w3.org/2000/svg">
        <path fill-rule="evenodd" clip-rule="evenodd" d="M2.31924 13.0649C5.29918 10.9716 44.7009 1.91911 54.5029 1.12834C69.1005 -0.0493099 84.1908 2.6431 94.6641 8.29405C102.996 12.7895 109.018 19.5475 111.014 26.6408C112.167 30.7395 112.221 33.0879 111.27 37.6951L110.448 41.6729L113.641 43.5293C124.238 49.6905 133.701 59.3371 138.6 68.973C139.346 70.441 140.04 71.5838 140.141 71.5127C140.242 71.4411 139.946 68.6815 139.483 65.3799C139.019 62.0783 138.791 59.123 138.976 58.8128C139.599 57.7688 140.823 58.4169 141.33 60.0588C142.285 63.152 143.892 75.449 143.581 77.2766C143.334 78.7256 142.927 78.8991 140.673 78.5167C139.304 78.2842 137.702 77.4239 133.76 74.8029C127.357 70.5461 126.358 69.7225 126.507 68.824C126.61 68.2099 126.822 68.1776 128.022 68.5924C128.789 68.8573 131.112 70.0488 133.185 71.2399C135.257 72.4309 137.024 73.3581 137.112 73.3007C137.429 73.0931 133.699 67.2038 131.292 64.1128C126.762 58.2954 122.511 54.1131 117.17 50.2187C114.251 48.0908 108.911 44.7303 108.731 44.9089C108.678 44.9624 108.072 45.9229 107.386 47.0436C105.023 50.9031 100.103 55.7602 95.4491 58.8289C82.2526 67.5301 64.2343 68.4461 56.3459 60.8169C55.3305 59.8348 54.4375 58.4306 53.909 56.9844C53.1792 54.9877 53.1365 54.3457 53.5659 51.8528C54.2796 47.7096 56.2945 45.0379 61.3954 41.4697C67.1132 37.4692 73.663 35.3401 81.6649 34.8799C86.0179 34.6294 98.5967 36.7524 103.468 38.5594C105.289 39.2349 106.889 39.7096 107.024 39.6146C107.159 39.5196 107.545 38.2099 107.881 36.7049C108.954 31.8967 108.163 27.3435 105.471 22.8317C97.8997 10.1435 77.5841 2.71967 55.0943 4.4228C47.3598 5.00837 7.39668 13.2604 3.27578 15.0697C1.86423 15.6895 1.27204 15.7755 0.953116 15.4068C0.307761 14.6602 0.488127 14.3507 2.31924 13.0649ZM56.1108 54.3273C56.6485 59.4732 62.9243 62.733 72.2007 62.6846C80.5623 62.6407 87.9812 60.0277 95.2763 54.557C99.3466 51.5046 102.468 48.3355 104.3 45.3967C105.849 42.9123 106.124 43.1989 100.245 41.1829C95.356 39.5066 85.8264 37.7697 82.3293 37.9173C78.1359 38.0945 73.5926 38.8839 69.7951 40.0945C63.6522 42.0532 58.003 46.6636 56.6587 50.8155C56.3618 51.7328 56.0825 52.5651 56.0375 52.6649C55.9929 52.7649 56.0258 53.5131 56.1108 54.3273Z" fill="black"/>
        </svg>